<?xml version="1.0" encoding="utf-8"?>
<!-- Generator: Adobe Illustrator 22.1.0, SVG Export Plug-In . SVG Version: 6.00 Build 0)  -->
<svg version="1.1" id="Layer_1" xmlns="http://www.w3.org/2000/svg" xmlns:xlink="http://www.w3.org/1999/xlink" x="0px" y="0px"
	 width="675px" height="675px" viewBox="0 0 675 675" enable-background="new 0 0 675 675" xml:space="preserve">
<path id="f" d="M372.864,15.278c-11.59,6.002-12.075,17.174-14.14,27.657c12.479,0,24.674,0,36.822,0
	c-0.654,4.442-1.187,9.095-2.144,13.658c-0.183,0.874-2.023,1.975-3.116,1.993c-9.367,0.159-18.738,0.092-28.108,0.093
	c-1.353,0-2.706,0-4.21,0c-1.072,9.01-2.029,17.657-3.147,26.282c-1.298,10.01-2.718,19.967-6.881,29.355
	c-7.524,16.969-26.869,19.646-39.339,14.416c-7.376-3.094-10.521-11.402-7.44-18.795c2.042-4.901,6.794-7.159,14.133-6.716
	c5.219,0.315,8.811,3.263,10.179,8.378c0.213,0.797,0.355,1.614,0.607,2.774c4.757-3.04,7.515-7.174,8.312-12.19
	c1.505-9.465,2.534-19.008,3.671-28.529c0.573-4.802,0.949-9.628,1.455-14.865c-8.54,0-16.849,0-25.456,0
	c0.961-5.505,1.847-10.576,2.767-15.844c7.62,0,15.525,0,23.13,0c1.654-6.627,2.879-13.396,5.039-19.851
	c6.786-20.279,25.107-26.043,42.216-21.771c9.599,2.396,13.856,9.681,11.134,18.208c-2.003,6.277-7.029,9.029-14.931,8.174
	c-6.316-0.683-9.534-4.143-10.111-10.848C373.278,16.515,373.124,16.185,372.864,15.278z"/>
<path id="l" d="M291.163,62.088c3.882,3.509,7.575,6.848,11.532,10.424c-13.94,16.525-29.131,30.679-52.963,29.436
	c-2.48-0.129-5.004-0.41-7.397-1.039c-8.791-2.311-13.197-9.38-12.547-19.501c0.656-10.201,4.686-19.317,8.956-28.346
	c3.356-7.096,7.075-14.024,10.312-21.172c1.363-3.011,2.109-6.354,2.747-9.622c0.464-2.375-1.088-4.214-3.407-3.773
	c-3.58,0.681-7.348,1.546-10.44,3.352c-5.138,3.002-9.803,6.813-14.853,10.415c-2.698-4.252-5.457-8.6-8.405-13.247
	c12.469-9.326,25.453-18.122,41.729-18.936c12.684-0.634,19.652,5.192,16.945,18.53c-1.784,8.787-5.731,17.182-9.143,25.577
	c-3.844,9.458-8.325,18.655-12.216,28.095c-1.526,3.702-2.444,8.087,0.795,11.286c3.519,3.475,8.159,2.621,12.401,1.225
	c9.051-2.978,15.209-9.75,21.174-16.696C288.068,66.133,289.611,64.047,291.163,62.088z"/>
<path id="u" d="M113.509,50.907c-2.486-4.609-4.55-8.435-6.818-12.638c7.877-7.389,16.882-12.693,28.489-10.854
	c9.858,1.563,14.711,8.361,12.203,18.047c-1.724,6.657-5.063,12.901-7.739,19.305c-1.582,3.786-3.698,7.404-4.829,11.312
	c-1.918,6.628,2.353,10.862,8.595,8.009c5.05-2.308,9.942-5.857,13.681-9.968c10.918-12.008,17.466-26.602,22.766-41.782
	c0.574-1.644,1.114-3.3,1.723-5.109c7.209,0.577,14.365,1.149,21.77,1.741c-4.5,9.914-8.992,19.349-13.066,28.961
	c-2.423,5.717-4.439,11.642-6.144,17.614c-0.808,2.83-1.973,6.631,1.289,8.596c3.255,1.961,6.171-0.403,8.73-2.493
	c1.154-0.943,2.211-2.007,3.591-3.271c2.25,4.448,4.408,8.711,6.698,13.237c-7.771,6.823-16.315,11.402-27.037,10.27
	c-9.295-0.982-14.784-8.745-12.988-18.265c0.388-2.054,0.965-4.072,0.686-6.727c-0.827,0.945-1.781,1.808-2.461,2.849
	c-5.185,7.942-11.17,15.023-19.928,19.284c-5.077,2.47-10.418,3.389-15.993,2.903c-10.588-0.921-16.878-9.767-13.894-20.723
	c1.677-6.157,4.894-11.91,7.568-17.776c2.009-4.409,4.298-8.69,6.369-13.072c0.466-0.985,0.806-2.174,0.73-3.236
	c-0.1-1.406-0.305-3.634-1.114-3.976c-1.362-0.576-3.445-0.387-4.839,0.284c-1.853,0.891-3.403,2.48-4.954,3.909
	C115.52,48.327,114.664,49.552,113.509,50.907z"/>
<path id="v" d="M78.186,50.267c-2.148,0.281-3.832,0.627-5.528,0.701c-6.459,0.28-9.878-1.419-11.519-5.595
	c-2.078-5.289-0.598-12.025,3.819-15.342c6.173-4.637,13.125-5.319,20.189-2.476c6.547,2.635,8.994,8.226,9.492,14.9
	c0.904,12.14-3.523,22.596-10.75,31.879C70.472,91.568,53.326,102.05,30.84,101.986c-14.07-0.04-20.712-9.798-18.305-23.001
	c1.374-7.537,4.256-14.799,6.462-22.184c0.82-2.745,2.062-5.446,2.338-8.243c0.209-2.118-0.115-5.041-1.441-6.385
	c-2.039-2.068-4.711-0.494-6.693,1.165c-2.378,1.99-4.601,4.166-6.77,6.152C4.356,45.86,2.262,42.198,0,38.24
	c7.316-7.507,15.757-12.888,27.079-12.155c9.281,0.601,14.894,6.646,13.635,16.351c-0.919,7.082-3.395,13.968-5.258,20.92
	c-1.286,4.798-3.13,9.489-3.953,14.358c-0.823,4.873,1.409,7.247,6.298,6.905c3.782-0.264,7.77-0.924,11.188-2.466
	c12.764-5.759,22.184-15.091,27.932-27.96C77.45,53.009,77.727,51.716,78.186,50.267z"/>
</svg>
